<svg xmlns="http://www.w3.org/2000/svg" width="89.449" height="76.8" viewBox="0 0 89.449 76.8"><defs><style>.a,.b{fill:#ffdb5d;}.b{fill-rule:evenodd;}.c{fill:#ffd24f;}</style></defs><g transform="translate(3010.666 -837.917)"><path class="a" d="M-2953.2,887.5c-.776-.125-1.684-1.008-2.792-2.646q-.975-1.6-1.96-3.236c2.033-.377,3.005-1.518,2.994-3.317a2.666,2.666,0,0,0-1.461-2.476,5.735,5.735,0,0,0-2.9-.657c-.471,0-1.156.024-2.064.058a36.22,36.22,0,0,1-4.344-.058l-.135-.014v.409s2.079.339,2.079,1.027c.023.122.038.746.036,1.635V885.4a4.906,4.906,0,0,1-.127,1.3c-.147.477-1.682.821-1.682.821l-.084.483.155-.012q1.54-.126,3-.127t2.845.127l.134.012v-.436a12.246,12.246,0,0,1-1.905-.746c-.211-.144-.248-.5-.25-1.035,0-.1.005-.426.018-.827s.021-.755.021-1.053v-1.992l1.307,0a62.419,62.419,0,0,1,3.911,6.016l.037.065s1.088-.065,1.607-.065,1.08.021,1.522.06l.135.012,0-.495Zm-7.179-6.707h-1.254v-4.46l1.79-.019c1.833.019,2.656.724,2.672,2.24a1.887,1.887,0,0,1-.957,1.843,4.919,4.919,0,0,1-2.251.4" transform="translate(31.88 26.488)"/><path class="a" d="M-3000.883,882.034a4.969,4.969,0,0,0-1.9-.71,4.976,4.976,0,0,0,1.474-.65,2.748,2.748,0,0,0,1.265-2.184,2.909,2.909,0,0,0-1.378-2.61,5.119,5.119,0,0,0-2.923-.719l-3.089.058c-.351.007-.686.009-1,.01-1.23.012-2.225-.079-2.225-.079v.442s1.915.252,2.083,1.169c.021.122.077,9.4-.075,9.724-.375.8-2.008,1.056-2.008,1.056v.464s1.207-.116,2.547-.1c.305,0,.623,0,.954.009l3.383.079a5.047,5.047,0,0,0,2.944-.818,3.014,3.014,0,0,0,1.375-2.648,2.775,2.775,0,0,0-1.418-2.494m-5.725-3.772c0-.618.011-1.2.046-2,.407-.021.935-.033,1.537-.033,1.91.022,2.761.635,2.778,2.24-.011,1.509-.92,2.153-3,2.172h-1.345Zm1.5,8.66h0l0,.017,0-.017m-.1-.094a.131.131,0,0,0-.026,0l-.017,0,.012,0h0l-1.311-.05c-.024-.406-.026-.736-.026-1.1V882h1.224c2.5.015,3.646.854,3.655,2.581-.008,1.664-1.107,2.225-3.515,2.247" transform="translate(0 26.49)"/><path class="a" d="M-2995.624,875.021a6.15,6.15,0,0,0-4.732,1.9,6.874,6.874,0,0,0-1.743,4.862,6.6,6.6,0,0,0,1.684,4.628,5.765,5.765,0,0,0,4.479,1.9h.009a5.752,5.752,0,0,0,4.671-2.124,7.559,7.559,0,0,0,1.621-4.953,6.3,6.3,0,0,0-1.605-4.453,5.76,5.76,0,0,0-4.383-1.768m3.582,7.133a6.51,6.51,0,0,1-.816,3.43,3.152,3.152,0,0,1-2.889,1.595,3.316,3.316,0,0,1-3.178-2.16,9.746,9.746,0,0,1-.768-4.147,5.339,5.339,0,0,1,.943-3.257,3.4,3.4,0,0,1,2.912-1.455c2.527.005,3.783,1.925,3.8,5.993Z" transform="translate(6.095 26.397)"/><path class="a" d="M-2985.511,886.6h-3.643v-8.136c0-.991.017-1.489.036-1.736.063-.82,2.215-1.162,2.215-1.162v-.416s-2.225.137-3.25.137-3.136-.139-3.136-.139v.411s2.08.347,2.08,1.131c.021.13.037.726.037,1.614V885.2a2.926,2.926,0,0,1-.127,1.314c-.4.77-1.991.988-1.991.988v.5l.13-.007c1.33-.079,2.835-.117,4.476-.117s3.419.038,5.3.117l.123.005.167-3.408h-.537s-.271,2.086-1.884,2.011" transform="translate(12.364 26.49)"/><path class="a" d="M-2980.413,873.565v-.014a.98.98,0,0,0-.981-.95,1.364,1.364,0,0,0-.928.476l-2.677,3.1h.995l3.048-1.742a1.077,1.077,0,0,0,.542-.857Z" transform="translate(18.262 24.676)"/><path class="a" d="M-2982.839,875.317q-1.1,0-2.961-.156l-.136-.01v.418s1.727.388,1.955,1.287a12.766,12.766,0,0,1,.086,2s.058,2.964.039,4.553c-.027,2.155-.1,3.108-.642,3.558a3.435,3.435,0,0,1-1.438.518V888l.136-.01q1.745-.154,2.961-.156,1.06,0,2.882.156l.135.01v-.524a4.391,4.391,0,0,1-1.458-.539c-.38-.275-.633-1.383-.611-3.537,0-.294.026-4.392.039-4.547.024-.811.014-1.561.063-2.009.116-1.025,1.967-1.278,1.967-1.278v-.418l-.135.01c-1.278.1-2.241.156-2.882.156" transform="translate(17.595 26.49)"/><path class="a" d="M-2968.634,875.595l.1-.022v-.426l-.141.021a14.342,14.342,0,0,1-1.854.115,20.39,20.39,0,0,1-2.1-.116l-.135-.014v.412l.084.029c.521.163,1.256.392,1.226.645-.223,1.159-2.309,6.495-2.85,7.8-.412-.962-3.1-7.572-3.088-7.736,0-.007-.156-.359,1.443-.708l.092-.024v-.419s-1.79.127-2.647.127a16.564,16.564,0,0,1-2.765-.127v.412s1.258.32,1.622,1.145c1.322,2.992,2.844,6.844,4.462,11.438l.029.082h.622l.03-.082c1.2-3.3,3.755-9.9,4.517-11.479a1.943,1.943,0,0,1,1.355-1.075" transform="translate(20.913 26.486)"/><path class="a" d="M-2966.993,875l-.031-.08h-.917l-.033.075c-2,4.744-2.654,6.177-4.346,10.128-.253.594-.382,1.023-.65,1.523-.344.647-1.578,1.02-1.578,1.02v.506l.139-.014a20.438,20.438,0,0,1,2.183-.117,21.472,21.472,0,0,1,2.235.117l.137.014v-.506l-1.63-.616c.551-1.415.9-2.321,1.227-3.1l2.143.016,2.385.038a29.237,29.237,0,0,1,1.057,3.079,12.411,12.411,0,0,1-1.78.553l-.1.022v.515l.134-.01c.864-.077,1.786-.117,2.747-.117s1.96.038,2.98.117l.133.01v-.5a4.507,4.507,0,0,1-1.489-.683,6.5,6.5,0,0,1-.7-1.492c-2.642-6.392-3.613-8.817-4.255-10.491m-2.914,8.052,1.934-4.879,1.833,4.862Z" transform="translate(25.697 26.325)"/><path class="a" d="M-3001.718,872.937c-.159.347-.277.387-.277.387a2.232,2.232,0,0,1-.9.207,2.207,2.207,0,0,1-1.779-.688,3.148,3.148,0,0,1-.587-1.922,2.814,2.814,0,0,1,.582-1.891,2.3,2.3,0,0,1,1.876-.745c.554,0,.773.079.934.235a3.4,3.4,0,0,1,.416.924h.188l0-.067c-.014-.279-.019-.551-.021-.815s.009-.524.021-.774l0-.055-.051-.01a6.7,6.7,0,0,0-1.385-.135,4.117,4.117,0,0,0-2.662.923,3.2,3.2,0,0,0-1.184,2.505,2.927,2.927,0,0,0,1.078,2.387,3.846,3.846,0,0,0,2.521.815,4.969,4.969,0,0,0,1.666-.241l.061-.019s-.032-.612-.032-1.657h-.209s-.137.375-.255.635" transform="translate(2.93 21.11)"/><path class="a" d="M-2999.795,867.633a3.067,3.067,0,0,0-2.364.952,3.433,3.433,0,0,0-.871,2.427,3.3,3.3,0,0,0,.842,2.31,2.884,2.884,0,0,0,2.237.952h0a2.872,2.872,0,0,0,2.333-1.059,3.774,3.774,0,0,0,.808-2.475,3.131,3.131,0,0,0-.8-2.225,2.879,2.879,0,0,0-2.189-.881m1.789,3.562a3.269,3.269,0,0,1-.407,1.713,1.577,1.577,0,0,1-1.443.8,1.654,1.654,0,0,1-1.585-1.078,4.841,4.841,0,0,1-.385-2.071,2.67,2.67,0,0,1,.47-1.626,1.7,1.7,0,0,1,1.453-.726C-2998.641,868.2-2998.015,869.165-2998.006,871.195Z" transform="translate(5.433 21.141)"/><path class="b" d="M-2992.555,867.835c-.194.065-.335.125-.529.183-.274.115-.262.455-.274.609-.054.835-.06,1.7-.06,2.831,0,.233,0,1.025.031,2.665h-.575c-.6-.768-1.042-1.349-1.816-2.4-.666-.89-1.051-1.486-1.725-2.437l-.09-.156s.024,1.468.024,2.079c0,.548.019,1.734.076,2.223.088.406.6.373.8.431l.01.2a13.984,13.984,0,0,0-2.538,0v-.193l.457-.149c.447-.1.433-1.624.433-3.265l-.031-1.867c0-.575-.539-.683-.881-.792l-.01-.164a8.314,8.314,0,0,0,1.958,0,22.384,22.384,0,0,0,1.655,2.535c.574.772.936,1.232,1.524,1.992v-.419s-.04-2.223-.043-2.43a4.354,4.354,0,0,0-.094-1.046c-.115-.258-.36-.291-.816-.477l-.007-.154a13.7,13.7,0,0,0,2.516,0Z" transform="translate(8.12 21.141)"/><path class="a" d="M-2991.247,871.407l-.05.038.05-.039c-.021-.026-.04-.049-.06-.072l-.007-.009a2.4,2.4,0,0,0-.58-.459c-.416-.207-.748-.368-1.188-.585-.509-.279-.748-.608-.748-1a.985.985,0,0,1,.328-.748.668.668,0,0,1,.1-.084l.029-.017a.858.858,0,0,1,.286-.113,1.727,1.727,0,0,1,.454-.056,2.841,2.841,0,0,1,.385.026,1.371,1.371,0,0,1,.384.086l.354,1.025h.171l.061-1.438-.038-.017a3.524,3.524,0,0,0-1.458-.313,2.452,2.452,0,0,0-1.485.447,1.6,1.6,0,0,0-.7,1.366,1.427,1.427,0,0,0,.1.52,2.028,2.028,0,0,0,.834.911l.082.046.031.019c.371.211.678.421,1.085.638.512.3.752.621.752.969a1.459,1.459,0,0,1-.045.346l0,.005a1.067,1.067,0,0,1-.885.669,3.058,3.058,0,0,1-.458.036,1.764,1.764,0,0,1-.94-.226l-.195-1.159-.211.048-.041.012-.175,1.682.044.019a3.986,3.986,0,0,0,1.454.274,3.4,3.4,0,0,0,1.734-.4,1.626,1.626,0,0,0,.863-1.486,1.56,1.56,0,0,0-.31-.958" transform="translate(11.123 21.141)"/><path class="b" d="M-2987.115,869.35h-.141a4.53,4.53,0,0,0-.439-.969c-.112-.135-.32-.178-.63-.178-.065,0-.2,0-.4.01s-.253.01-.4.01v4.367c0,.524.048.75.143.866a1.821,1.821,0,0,0,.823.406v.183a17.814,17.814,0,0,0-2.961,0v-.183a1.786,1.786,0,0,0,.811-.406c.1-.116.154-.342.154-.866v-4.367c-.142,0-.2,0-.4-.01s-.333-.01-.4-.01a.8.8,0,0,0-.629.178,4.437,4.437,0,0,0-.425.969h-.145v-1.717q2.516.116,5.031,0Z" transform="translate(13.176 21.141)"/><path class="b" d="M-2983.708,872.481c-.326-.532-.652-1.071-.978-1.612a1.571,1.571,0,0,0,1.493-1.653,1.328,1.328,0,0,0-.729-1.234,2.846,2.846,0,0,0-1.443-.328c-.234,0-.577.01-1.029.029s-.911.021-1.135.021a9.867,9.867,0,0,1-1.03-.05l-.068-.007v.25s.949.072,1.037.512c.01.061.018.325.018.77v3.541a3.184,3.184,0,0,1-.065.705c-.076.279-.837.409-.837.409l-.043.222.079-.007q.765-.064,1.492-.063c.486,0,.958.022,1.419.063l.068.007v-.2a3.612,3.612,0,0,1-.924-.39c-.1-.08-.15-.2-.151-.464,0-.048,0-.265.01-.466s.009-.377.009-.525v-.991h.651a31.048,31.048,0,0,1,1.949,3l.06.029c.238-.019.5-.029.76-.029s.56.01.78.029l.069.007v-.246c-.438-.07-.912-.512-1.463-1.328m-2.186-2.023h-.626v-2.223l.849-.009c.957.009,1.365.359,1.375,1.116a.937.937,0,0,1-.478.917,2.456,2.456,0,0,1-1.12.2" transform="translate(15.68 21.15)"/><path class="a" d="M-2979.441,867.7c-.427,0-.857-.019-1.268-.056l-.069-.007v.214s.793.12.91.466a8.319,8.319,0,0,1,.124,1.583c0,.219.007,2.5-.375,2.985a1.44,1.44,0,0,1-1.176.534,1.587,1.587,0,0,1-1.354-.508c-.641-.782-.325-4.145-.32-4.4.009-.469,1.02-.652,1.02-.652v-.221l-.067.005c-.507.038-1.034.056-1.55.056s-1.021-.019-1.483-.056l-.067-.007v.226s1.079.216,1.079.753c0,.188-.171,2-.161,2.743a3.517,3.517,0,0,0,.455,1.932,2.778,2.778,0,0,0,2.262.864,2.247,2.247,0,0,0,2.135-1.054,4.836,4.836,0,0,0,.376-2.168v-.145c-.007-.741-.012-1.309-.012-1.708s.008-.625.012-.671c.036-.464.822-.561.822-.561v-.21l-.069.007c-.384.038-.8.056-1.226.056" transform="translate(18.179 21.141)"/><path class="a" d="M-2976.171,872.932c-.159.348-.279.387-.279.387a2.173,2.173,0,0,1-.9.207,2.209,2.209,0,0,1-1.78-.686,3.16,3.16,0,0,1-.587-1.922,2.8,2.8,0,0,1,.583-1.891,2.288,2.288,0,0,1,1.875-.745c.554,0,.773.077.935.233a3.419,3.419,0,0,1,.415.926h.189l0-.067c-.014-.279-.019-.553-.02-.816s.007-.522.02-.772l0-.055-.051-.01a6.8,6.8,0,0,0-1.385-.137,4.121,4.121,0,0,0-2.663.924,3.2,3.2,0,0,0-1.183,2.5,2.926,2.926,0,0,0,1.078,2.389,3.858,3.858,0,0,0,2.521.815,4.963,4.963,0,0,0,1.665-.241l.062-.02s-.033-.613-.033-1.657h-.208s-.137.375-.255.635" transform="translate(21.106 21.106)"/><path class="b" d="M-2972.429,869.36h-.141a4.487,4.487,0,0,0-.44-.967c-.11-.135-.32-.178-.628-.178-.065,0-.2,0-.4.009s-.255.01-.4.01V872.6c0,.522.048.75.146.866a1.816,1.816,0,0,0,.821.406v.183a17.462,17.462,0,0,0-2.96,0v-.183a1.785,1.785,0,0,0,.811-.406c.1-.116.155-.344.155-.866v-4.369c-.142,0-.2,0-.4-.01s-.332-.009-.4-.009a.8.8,0,0,0-.628.178,4.3,4.3,0,0,0-.424.967h-.147v-1.717q2.517.116,5.032,0Z" transform="translate(23.624 21.148)"/><path class="a" d="M-2971.024,867.633a3.059,3.059,0,0,0-2.362.952,3.424,3.424,0,0,0-.872,2.427,3.305,3.305,0,0,0,.841,2.31,2.888,2.888,0,0,0,2.239.952h0a2.871,2.871,0,0,0,2.333-1.059,3.777,3.777,0,0,0,.809-2.475,3.139,3.139,0,0,0-.8-2.225,2.875,2.875,0,0,0-2.188-.881m1.788,3.562a3.269,3.269,0,0,1-.407,1.713,1.573,1.573,0,0,1-1.441.8,1.655,1.655,0,0,1-1.586-1.078,4.863,4.863,0,0,1-.385-2.071,2.656,2.656,0,0,1,.473-1.626,1.693,1.693,0,0,1,1.451-.726c1.261,0,1.89.962,1.9,2.992Z" transform="translate(25.904 21.141)"/><path class="b" d="M-2965.536,872.5c-.327-.537-.657-1.078-.984-1.624a1.581,1.581,0,0,0,1.5-1.664,1.338,1.338,0,0,0-.734-1.243,2.843,2.843,0,0,0-1.453-.33c-.236,0-.582.009-1.035.029s-.917.019-1.143.019a10,10,0,0,1-1.037-.048l-.068-.007v.252s.956.072,1.044.513c.01.062.017.329.017.777v3.565a3.28,3.28,0,0,1-.064.712c-.077.281-.844.411-.844.411l-.043.222.079-.005q.77-.065,1.5-.063c.49,0,.963.02,1.427.063l.07.007v-.2a3.692,3.692,0,0,1-.93-.392c-.1-.08-.151-.2-.153-.466,0-.051,0-.269.011-.471s.008-.378.008-.529v-1h.656a31.684,31.684,0,0,1,1.963,3.019l.06.031c.239-.021.5-.029.765-.029s.563.008.785.029l.07.007v-.248c-.442-.072-.919-.515-1.474-1.338m-2.2-2.038h-.628v-2.237l.854-.009c.962.009,1.375.361,1.383,1.123a.94.94,0,0,1-.481.924,2.464,2.464,0,0,1-1.128.2" transform="translate(28.584 21.141)"/><path class="b" d="M-2964.229,871.6l.934-2.355.885,2.346Zm1.413-3.933-.015-.038h-.443l-.015.036c-.964,2.29-1.287,3.026-2.1,4.934-.121.286-.184.493-.313.734-.165.313-.761.493-.761.493v.245l.067-.007a9.724,9.724,0,0,1,1.054-.057,10.426,10.426,0,0,1,1.079.057l.067.007v-.245l-.788-.3c.267-.683.435-1.119.592-1.5l1.035.009,1.151.017a13.947,13.947,0,0,1,.51,1.486,5.956,5.956,0,0,1-.859.267l-.046.01v.25l.065-.005c.416-.038.861-.057,1.324-.057s.947.019,1.439.057l.064.005v-.243a2.187,2.187,0,0,1-.719-.33,3.115,3.115,0,0,1-.336-.719c-1.275-3.086-1.738-4.3-2.047-5.11" transform="translate(31.445 21.141)"/><path class="c" d="M-2994.552,879.228h0Zm0-15.571v5.037a25.364,25.364,0,0,1,2.2-1.383,11.011,11.011,0,0,1-2.2-3.654m19.754-8.578a2.56,2.56,0,0,0-.305-1.871,5.564,5.564,0,0,0-2.149-1.29,13.361,13.361,0,0,0,2.455,3.161m-11.695-3.675a15,15,0,0,1,6.348-1.539,19.569,19.569,0,0,1-1.393-4.118s-2.562-.568-2.715-1.181c0,0,.115-2.143,2.7-4.124h-13V858.72c.866-2.36,3.161-4.919,8.059-7.315m20.778,27.823h9.64V869.82a60.741,60.741,0,0,1-9.64,9.408m9.64-14.588v-8.855c-1.388-.941-3.662-1.237-6.861-.753a17.09,17.09,0,0,1,6.861-1.6V840.443h-22.161a9.387,9.387,0,0,0-3.493,3.3,10.767,10.767,0,0,0,1.976,1.094,23.191,23.191,0,0,0,1.554,5.184,6.886,6.886,0,0,1,4.565,2.656,5.2,5.2,0,0,1,.259,3.5c.119.075.24.152.366.224a9.093,9.093,0,0,0,4.1-3.185c0-.005-.2,2.993-3.992,4.6-.269-.135-.525-.279-.777-.428-.806,2.6-2.841,5.994-7.347,9.6-3.341-1.07-3.94-3.055-3.94-3.055a5.457,5.457,0,0,0,3.851,1.7,17.151,17.151,0,0,0,6.077-9.16,16.487,16.487,0,0,1-4.231-4.915,14.734,14.734,0,0,0-6.515,1.474c-11.147,5-7.609,12.365-6.478,14.226,1.038-.578,2.23-1.171,3.6-1.775a18.266,18.266,0,0,0-5.889,5v8.742h26.78c5.727-5.576,9.658-10.58,11.7-14.588m-18.757-22.849a9.442,9.442,0,0,1,8.78.8,14.492,14.492,0,0,0-5.815.14Zm-14.213,21.994s-4.844-5.182,7.486-8.429c-8.719,4.3-7.486,8.429-7.486,8.429m2.964-4.944s1.827,5.689-2.8,8.578a25.544,25.544,0,0,0,2.8-8.578m.383,20.385h-3.164s3.952-6.7,11.137-7.821a15.136,15.136,0,0,0-7.972,7.821m9.472-15.68c2.563-2.213,5.531-1.653,6.512-.344,1.407,1.876.47,3.918-1.2,5.42,0,0,2.08-2.28.456-4.462-.687-.922-2.849-1.4-4.742.186s-3.014,5.023.466,6.375c-4.087.166-4.763-4.349-1.487-7.176m3.3,15.672-3.06.012c10.373-5.386,6.166-11.085,6.166-11.085s6.192,5.513-3.106,11.073m3.347-33.9-2.687-1.047c5.039-.727,6.173.929,6.173.929a8.429,8.429,0,0,0-3.486.118m2.909,1.7a19.76,19.76,0,0,0,3.253,8.217s-2.807-1.545-3.7-3.837a5.078,5.078,0,0,1,.443-4.38m-27.888,23.464v-1.792c-8.691,6.161-.028,10.52,0,10.534a7,7,0,0,1,0-8.742m27.273-30.048a10.935,10.935,0,0,0-10.957-1.773,12.625,12.625,0,0,0-3.315,1.778h3.315c4.9-2.629,10.957-.005,10.957-.005m11.2,12.99v2.357c2.2,1.492,2.158,4.614,0,8.855v5.18c7.388-9.271,6.55-16.24,0-16.392M-2975,885.749a97.488,97.488,0,0,0,9.286-6.521h-2.057c-2.158,2.1-4.569,4.282-7.229,6.521m-19.551-22.091V858.72a7.22,7.22,0,0,0,0,4.937" transform="translate(8.712 0)"/></g></svg>